<svg xmlns="http://www.w3.org/2000/svg" xmlns:xlink="http://www.w3.org/1999/xlink" version="1.1" x="0px" y="0px" viewBox="0 0 48 60" enable-background="new 0 0 48 48" xml:space="preserve"><g><path fill="#000000" d="M6.8,1v46h34.4V1H6.8z M24,6.5c2.2,0,3.9,1.8,3.9,3.9s-1.7,3.9-3.9,3.9c-2.2,0-3.9-1.8-3.9-3.9   S21.8,6.5,24,6.5z M24,14.9c5.1,0,9.3,4.1,9.3,9.3H14.7C14.7,19,18.9,14.9,24,14.9z M36.9,40.8H11.1c-0.6,0-1-0.4-1-1s0.4-1,1-1   h25.8c0.6,0,1,0.4,1,1S37.4,40.8,36.9,40.8z M36.9,33.1H11.1c-0.6,0-1-0.4-1-1s0.4-1,1-1h25.8c0.6,0,1,0.4,1,1S37.4,33.1,36.9,33.1   z"/></g><text x="0" y="63" fill="#000000" font-size="5px" font-weight="bold" font-family="'Helvetica Neue', Helvetica, Arial-Unicode, Arial, Sans-serif">Created by Creative Stall</text><text x="0" y="68" fill="#000000" font-size="5px" font-weight="bold" font-family="'Helvetica Neue', Helvetica, Arial-Unicode, Arial, Sans-serif">from the Noun Project</text></svg>